<?xml version="1.0" encoding="UTF-8" standalone="no"?>
<!DOCTYPE svg PUBLIC "-//W3C//DTD SVG 1.1//EN"
 "http://www.w3.org/Graphics/SVG/1.1/DTD/svg11.dtd">
<!-- Generated by graphviz version 2.38.0 (20140413.2041)
 -->
<!-- Title: catgraph Pages: 1 -->
<svg width="995pt" height="1406pt"
 viewBox="0.00 0.00 995.00 1406.00" xmlns="http://www.w3.org/2000/svg" xmlns:xlink="http://www.w3.org/1999/xlink">
<g id="graph0" class="graph" transform="scale(1 1) rotate(0) translate(4 1402)">
<title>catgraph</title>
<polygon fill="white" stroke="none" points="-4,4 -4,-1402 991,-1402 991,4 -4,4"/>
<!-- functor -->
<g id="node1" class="node"><title>functor</title>
<polygon fill="none" stroke="black" points="184,-982 127,-982 127,-946 184,-946 184,-982"/>
<text text-anchor="middle" x="155.5" y="-960.3" font-family="Times New Roman,serif" font-size="14.00">functor</text>
</g>
<!-- category -->
<g id="node2" class="node"><title>category</title>
<polygon fill="none" stroke="black" points="65,-533 0,-533 0,-497 65,-497 65,-533"/>
<text text-anchor="middle" x="32.5" y="-511.3" font-family="Times New Roman,serif" font-size="14.00">category</text>
</g>
<!-- functor&#45;&gt;category -->
<g id="edge1" class="edge"><title>functor&#45;&gt;category</title>
<path fill="none" stroke="black" d="M145.333,-945.957C133.59,-922.205 113.292,-878.9 101,-840 67.1532,-732.883 45.714,-600.452 37.4121,-543.369"/>
<polygon fill="black" stroke="black" points="40.8523,-542.701 35.9708,-533.298 33.9229,-543.693 40.8523,-542.701"/>
</g>
<!-- product -->
<g id="node3" class="node"><title>product</title>
<polygon fill="none" stroke="black" points="515.5,-752 454.5,-752 454.5,-716 515.5,-716 515.5,-752"/>
<text text-anchor="middle" x="485" y="-730.3" font-family="Times New Roman,serif" font-size="14.00">product</text>
</g>
<!-- product&#45;&gt;category -->
<g id="edge2" class="edge"><title>product&#45;&gt;category</title>
<path fill="none" stroke="black" d="M454.374,-747.376C384.687,-776.6 208.196,-837.298 101,-756 66.8602,-730.108 45.2603,-601.07 37.1417,-543.183"/>
<polygon fill="black" stroke="black" points="40.6051,-542.677 35.7826,-533.243 33.6696,-543.625 40.6051,-542.677"/>
</g>
<!-- embedding -->
<g id="node4" class="node"><title>embedding</title>
<polygon fill="none" stroke="black" points="354,-1236 276,-1236 276,-1200 354,-1200 354,-1236"/>
<text text-anchor="middle" x="315" y="-1214.3" font-family="Times New Roman,serif" font-size="14.00">embedding</text>
</g>
<!-- embedding&#45;&gt;functor -->
<g id="edge3" class="edge"><title>embedding&#45;&gt;functor</title>
<path fill="none" stroke="black" d="M285.195,-1199.85C271.95,-1190.41 256.817,-1177.93 246,-1164 234.736,-1149.49 189.532,-1043.05 168.006,-991.642"/>
<polygon fill="black" stroke="black" points="171.119,-990.014 164.034,-982.137 164.661,-992.713 171.119,-990.014"/>
</g>
<!-- initial morphism -->
<g id="node28" class="node"><title>initial morphism</title>
<polygon fill="none" stroke="black" points="208,-1136 103,-1136 103,-1100 208,-1100 208,-1136"/>
<text text-anchor="middle" x="155.5" y="-1114.3" font-family="Times New Roman,serif" font-size="14.00">initial morphism</text>
</g>
<!-- embedding&#45;&gt;initial morphism -->
<g id="edge35" class="edge"><title>embedding&#45;&gt;initial morphism</title>
<path fill="none" stroke="black" d="M285.478,-1199.89C259.801,-1183.59 221.897,-1159.52 193.819,-1141.69"/>
<polygon fill="black" stroke="black" points="195.394,-1138.55 185.076,-1136.14 191.642,-1144.46 195.394,-1138.55"/>
</g>
<!-- faithful -->
<g id="node5" class="node"><title>faithful</title>
<polygon fill="none" stroke="black" points="342.5,-890 287.5,-890 287.5,-854 342.5,-854 342.5,-890"/>
<text text-anchor="middle" x="315" y="-868.3" font-family="Times New Roman,serif" font-size="14.00">faithful</text>
</g>
<!-- faithful&#45;&gt;functor -->
<g id="edge4" class="edge"><title>faithful&#45;&gt;functor</title>
<path fill="none" stroke="black" d="M287.377,-883.405C274.629,-889.148 259.284,-896.478 246,-904 226.732,-914.91 206.148,-928.558 189.584,-940.08"/>
<polygon fill="black" stroke="black" points="187.489,-937.275 181.317,-945.886 191.512,-943.003 187.489,-937.275"/>
</g>
<!-- full -->
<g id="node6" class="node"><title>full</title>
<polygon fill="none" stroke="black" points="342,-1155 288,-1155 288,-1119 342,-1119 342,-1155"/>
<text text-anchor="middle" x="315" y="-1133.3" font-family="Times New Roman,serif" font-size="14.00">full</text>
</g>
<!-- full&#45;&gt;functor -->
<g id="edge5" class="edge"><title>full&#45;&gt;functor</title>
<path fill="none" stroke="black" d="M288.159,-1118.93C274.878,-1109.06 258.833,-1096.17 246,-1083 217.727,-1053.97 190.522,-1015.88 173.677,-990.702"/>
<polygon fill="black" stroke="black" points="176.393,-988.463 167.958,-982.052 170.554,-992.324 176.393,-988.463"/>
</g>
<!-- fully embeddable -->
<g id="node7" class="node"><title>fully embeddable</title>
<polygon fill="none" stroke="black" points="541,-1182 429,-1182 429,-1146 541,-1146 541,-1182"/>
<text text-anchor="middle" x="485" y="-1160.3" font-family="Times New Roman,serif" font-size="14.00">fully embeddable</text>
</g>
<!-- fully embeddable&#45;&gt;embedding -->
<g id="edge7" class="edge"><title>fully embeddable&#45;&gt;embedding</title>
<path fill="none" stroke="black" d="M428.991,-1181.68C407.938,-1188.45 384.115,-1196.11 363.791,-1202.64"/>
<polygon fill="black" stroke="black" points="362.571,-1199.35 354.122,-1205.75 364.713,-1206.02 362.571,-1199.35"/>
</g>
<!-- fully embeddable&#45;&gt;full -->
<g id="edge6" class="edge"><title>fully embeddable&#45;&gt;full</title>
<path fill="none" stroke="black" d="M428.991,-1155.16C403.877,-1151.12 374.822,-1146.45 352.465,-1142.86"/>
<polygon fill="black" stroke="black" points="352.817,-1139.37 342.389,-1141.24 351.706,-1146.28 352.817,-1139.37"/>
</g>
<!-- concrete category -->
<g id="node8" class="node"><title>concrete category</title>
<polygon fill="none" stroke="black" points="543,-836 427,-836 427,-800 543,-800 543,-836"/>
<text text-anchor="middle" x="485" y="-814.3" font-family="Times New Roman,serif" font-size="14.00">concrete category</text>
</g>
<!-- concrete category&#45;&gt;category -->
<g id="edge8" class="edge"><title>concrete category&#45;&gt;category</title>
<path fill="none" stroke="black" d="M426.658,-821.557C331.993,-826.171 148.717,-829.389 101,-789 63.4411,-757.209 43.2643,-606.6 36.3167,-543.217"/>
<polygon fill="black" stroke="black" points="39.7821,-542.706 35.243,-533.132 32.8215,-543.447 39.7821,-542.706"/>
</g>
<!-- concrete category&#45;&gt;faithful -->
<g id="edge9" class="edge"><title>concrete category&#45;&gt;faithful</title>
<path fill="none" stroke="black" d="M427.591,-836.131C402.792,-844.103 374.384,-853.234 352.437,-860.288"/>
<polygon fill="black" stroke="black" points="351.293,-856.979 342.844,-863.372 353.435,-863.644 351.293,-856.979"/>
</g>
<!-- forgetful functor -->
<g id="node9" class="node"><title>forgetful functor</title>
<polygon fill="none" stroke="black" points="707,-966 599,-966 599,-930 707,-930 707,-966"/>
<text text-anchor="middle" x="653" y="-944.3" font-family="Times New Roman,serif" font-size="14.00">forgetful functor</text>
</g>
<!-- forgetful functor&#45;&gt;faithful -->
<g id="edge10" class="edge"><title>forgetful functor&#45;&gt;faithful</title>
<path fill="none" stroke="black" d="M616.517,-929.864C597.291,-920.769 572.852,-910.363 550,-904 482.022,-885.071 399.692,-877.13 353.026,-873.959"/>
<polygon fill="black" stroke="black" points="352.998,-870.45 342.794,-873.302 352.549,-877.436 352.998,-870.45"/>
</g>
<!-- forgetful functor&#45;&gt;concrete category -->
<g id="edge11" class="edge"><title>forgetful functor&#45;&gt;concrete category</title>
<path fill="none" stroke="black" d="M606.334,-929.85C599.114,-925.888 592.047,-921.273 586,-916 564.26,-897.043 570.25,-882.541 550,-862 542.829,-854.726 534.299,-847.905 525.841,-841.904"/>
<polygon fill="black" stroke="black" points="527.694,-838.932 517.46,-836.192 523.752,-844.716 527.694,-838.932"/>
</g>
<!-- construct -->
<g id="node10" class="node"><title>construct</title>
<polygon fill="none" stroke="black" points="687.5,-782 618.5,-782 618.5,-746 687.5,-746 687.5,-782"/>
<text text-anchor="middle" x="653" y="-760.3" font-family="Times New Roman,serif" font-size="14.00">construct</text>
</g>
<!-- construct&#45;&gt;concrete category -->
<g id="edge12" class="edge"><title>construct&#45;&gt;concrete category</title>
<path fill="none" stroke="black" d="M618.407,-774.928C599.093,-781.211 574.166,-789.32 551.159,-796.804"/>
<polygon fill="black" stroke="black" points="549.865,-793.544 541.438,-799.966 552.03,-800.201 549.865,-793.544"/>
</g>
<!-- fibre -->
<g id="node11" class="node"><title>fibre</title>
<polygon fill="none" stroke="black" points="680,-728 626,-728 626,-692 680,-692 680,-728"/>
<text text-anchor="middle" x="653" y="-706.3" font-family="Times New Roman,serif" font-size="14.00">fibre</text>
</g>
<!-- fibre&#45;&gt;concrete category -->
<g id="edge13" class="edge"><title>fibre&#45;&gt;concrete category</title>
<path fill="none" stroke="black" d="M625.78,-718.709C613.321,-723.347 598.464,-729.621 586,-737 559.134,-752.907 531.8,-775.584 512.516,-792.9"/>
<polygon fill="black" stroke="black" points="510.063,-790.4 505.025,-799.72 514.776,-795.576 510.063,-790.4"/>
</g>
<!-- concrete functor -->
<g id="node12" class="node"><title>concrete functor</title>
<polygon fill="none" stroke="black" points="707.5,-1020 598.5,-1020 598.5,-984 707.5,-984 707.5,-1020"/>
<text text-anchor="middle" x="653" y="-998.3" font-family="Times New Roman,serif" font-size="14.00">concrete functor</text>
</g>
<!-- concrete functor&#45;&gt;functor -->
<g id="edge15" class="edge"><title>concrete functor&#45;&gt;functor</title>
<path fill="none" stroke="black" d="M601.457,-983.969C596.064,-981.277 590.801,-978.287 586,-975 566.804,-961.857 571.371,-946.192 550,-937 428.341,-884.671 265.913,-926.819 193.754,-950.56"/>
<polygon fill="black" stroke="black" points="192.549,-947.273 184.185,-953.776 194.779,-953.908 192.549,-947.273"/>
</g>
<!-- concrete functor&#45;&gt;concrete category -->
<g id="edge14" class="edge"><title>concrete functor&#45;&gt;concrete category</title>
<path fill="none" stroke="black" d="M598.432,-984.137C593.961,-981.472 589.731,-978.441 586,-975 559.991,-951.015 568.629,-934.079 550,-904 537.066,-883.116 520.455,-860.905 507.398,-844.287"/>
<polygon fill="black" stroke="black" points="509.892,-841.799 500.932,-836.144 504.41,-846.152 509.892,-841.799"/>
</g>
<!-- natural transformation -->
<g id="node13" class="node"><title>natural transformation</title>
<polygon fill="none" stroke="black" points="384,-1074 246,-1074 246,-1038 384,-1038 384,-1074"/>
<text text-anchor="middle" x="315" y="-1052.3" font-family="Times New Roman,serif" font-size="14.00">natural transformation</text>
</g>
<!-- natural transformation&#45;&gt;functor -->
<g id="edge16" class="edge"><title>natural transformation&#45;&gt;functor</title>
<path fill="none" stroke="black" d="M272.86,-1037.86C263.878,-1033.56 254.515,-1028.82 246,-1024 226.732,-1013.09 206.148,-999.442 189.584,-987.92"/>
<polygon fill="black" stroke="black" points="191.512,-984.997 181.317,-982.114 187.489,-990.725 191.512,-984.997"/>
</g>
<!-- natural isomorphism -->
<g id="node14" class="node"><title>natural isomorphism</title>
<polygon fill="none" stroke="black" points="550,-1128 420,-1128 420,-1092 550,-1092 550,-1128"/>
<text text-anchor="middle" x="485" y="-1106.3" font-family="Times New Roman,serif" font-size="14.00">natural isomorphism</text>
</g>
<!-- natural isomorphism&#45;&gt;natural transformation -->
<g id="edge17" class="edge"><title>natural isomorphism&#45;&gt;natural transformation</title>
<path fill="none" stroke="black" d="M427.591,-1091.87C412.969,-1087.17 397.091,-1082.07 382.023,-1077.22"/>
<polygon fill="black" stroke="black" points="382.851,-1073.81 372.26,-1074.08 380.709,-1080.48 382.851,-1073.81"/>
</g>
<!-- representable functor -->
<g id="node15" class="node"><title>representable functor</title>
<polygon fill="none" stroke="black" points="720,-1128 586,-1128 586,-1092 720,-1092 720,-1128"/>
<text text-anchor="middle" x="653" y="-1106.3" font-family="Times New Roman,serif" font-size="14.00">representable functor</text>
</g>
<!-- representable functor&#45;&gt;functor -->
<g id="edge18" class="edge"><title>representable functor&#45;&gt;functor</title>
<path fill="none" stroke="black" d="M599.184,-1091.84C594.506,-1089.23 590.025,-1086.29 586,-1083 563.672,-1064.74 574.537,-1044.16 550,-1029 434.173,-957.415 379.209,-1019.21 246,-991 228.512,-987.297 209.505,-981.782 193.524,-976.701"/>
<polygon fill="black" stroke="black" points="194.596,-973.369 184.004,-973.612 192.436,-980.027 194.596,-973.369"/>
</g>
<!-- representable functor&#45;&gt;natural isomorphism -->
<g id="edge19" class="edge"><title>representable functor&#45;&gt;natural isomorphism</title>
<path fill="none" stroke="black" d="M585.915,-1110C577.559,-1110 568.964,-1110 560.489,-1110"/>
<polygon fill="black" stroke="black" points="560.234,-1106.5 550.234,-1110 560.234,-1113.5 560.234,-1106.5"/>
</g>
<!-- initial object -->
<g id="node16" class="node"><title>initial object</title>
<polygon fill="none" stroke="black" points="197,-614 114,-614 114,-578 197,-578 197,-614"/>
<text text-anchor="middle" x="155.5" y="-592.3" font-family="Times New Roman,serif" font-size="14.00">initial object</text>
</g>
<!-- initial object&#45;&gt;category -->
<g id="edge20" class="edge"><title>initial object&#45;&gt;category</title>
<path fill="none" stroke="black" d="M116.251,-577.923C111.029,-575.103 105.814,-572.093 101,-569 87.4585,-560.3 73.416,-549.412 61.6691,-539.696"/>
<polygon fill="black" stroke="black" points="63.845,-536.953 53.9377,-533.198 59.3412,-542.312 63.845,-536.953"/>
</g>
<!-- terminal object -->
<g id="node17" class="node"><title>terminal object</title>
<polygon fill="none" stroke="black" points="204.5,-668 106.5,-668 106.5,-632 204.5,-632 204.5,-668"/>
<text text-anchor="middle" x="155.5" y="-646.3" font-family="Times New Roman,serif" font-size="14.00">terminal object</text>
</g>
<!-- terminal object&#45;&gt;category -->
<g id="edge21" class="edge"><title>terminal object&#45;&gt;category</title>
<path fill="none" stroke="black" d="M112.97,-631.987C108.701,-629.293 104.612,-626.296 101,-623 76.0245,-600.205 56.8004,-566.103 45.3691,-542.338"/>
<polygon fill="black" stroke="black" points="48.489,-540.747 41.0932,-533.161 42.1439,-543.703 48.489,-540.747"/>
</g>
<!-- zero object -->
<g id="node18" class="node"><title>zero object</title>
<polygon fill="none" stroke="black" points="354.5,-614 275.5,-614 275.5,-578 354.5,-578 354.5,-614"/>
<text text-anchor="middle" x="315" y="-592.3" font-family="Times New Roman,serif" font-size="14.00">zero object</text>
</g>
<!-- zero object&#45;&gt;initial object -->
<g id="edge22" class="edge"><title>zero object&#45;&gt;initial object</title>
<path fill="none" stroke="black" d="M275.471,-596C254.952,-596 229.452,-596 207.329,-596"/>
<polygon fill="black" stroke="black" points="207.106,-592.5 197.106,-596 207.106,-599.5 207.106,-592.5"/>
</g>
<!-- zero object&#45;&gt;terminal object -->
<g id="edge23" class="edge"><title>zero object&#45;&gt;terminal object</title>
<path fill="none" stroke="black" d="M275.471,-609.21C257.074,-615.517 234.675,-623.197 214.294,-630.185"/>
<polygon fill="black" stroke="black" points="213.111,-626.89 204.787,-633.444 215.382,-633.512 213.111,-626.89"/>
</g>
<!-- section -->
<g id="node19" class="node"><title>section</title>
<polygon fill="none" stroke="black" points="343,-1344 287,-1344 287,-1308 343,-1308 343,-1344"/>
<text text-anchor="middle" x="315" y="-1322.3" font-family="Times New Roman,serif" font-size="14.00">section</text>
</g>
<!-- section&#45;&gt;category -->
<g id="edge24" class="edge"><title>section&#45;&gt;category</title>
<path fill="none" stroke="black" d="M286.68,-1311.96C239.547,-1286.09 143.888,-1226.07 101,-1145 44.5566,-1038.3 35.2811,-651.542 33.7832,-543.316"/>
<polygon fill="black" stroke="black" points="37.2812,-543.128 33.6548,-533.173 30.2818,-543.217 37.2812,-543.128"/>
</g>
<!-- retraction -->
<g id="node20" class="node"><title>retraction</title>
<polygon fill="none" stroke="black" points="190,-722 121,-722 121,-686 190,-686 190,-722"/>
<text text-anchor="middle" x="155.5" y="-700.3" font-family="Times New Roman,serif" font-size="14.00">retraction</text>
</g>
<!-- retraction&#45;&gt;category -->
<g id="edge25" class="edge"><title>retraction&#45;&gt;category</title>
<path fill="none" stroke="black" d="M120.889,-691.611C113.652,-687.771 106.526,-682.943 101,-677 65.1793,-638.48 46.974,-578.239 38.9159,-543.091"/>
<polygon fill="black" stroke="black" points="42.2757,-542.07 36.7326,-533.041 35.4353,-543.556 42.2757,-542.07"/>
</g>
<!-- monomorphism -->
<g id="node21" class="node"><title>monomorphism</title>
<polygon fill="none" stroke="black" points="208,-236 103,-236 103,-200 208,-200 208,-236"/>
<text text-anchor="middle" x="155.5" y="-214.3" font-family="Times New Roman,serif" font-size="14.00">monomorphism</text>
</g>
<!-- monomorphism&#45;&gt;category -->
<g id="edge26" class="edge"><title>monomorphism&#45;&gt;category</title>
<path fill="none" stroke="black" d="M110.312,-236.093C106.845,-238.71 103.663,-241.668 101,-245 43.0096,-317.569 34.0506,-433.418 33.1846,-486.613"/>
<polygon fill="black" stroke="black" points="29.6843,-486.654 33.1075,-496.681 36.6841,-486.708 29.6843,-486.654"/>
</g>
<!-- epimorphism -->
<g id="node22" class="node"><title>epimorphism</title>
<polygon fill="none" stroke="black" points="200,-452 111,-452 111,-416 200,-416 200,-452"/>
<text text-anchor="middle" x="155.5" y="-430.3" font-family="Times New Roman,serif" font-size="14.00">epimorphism</text>
</g>
<!-- epimorphism&#45;&gt;category -->
<g id="edge27" class="edge"><title>epimorphism&#45;&gt;category</title>
<path fill="none" stroke="black" d="M116.251,-452.077C111.029,-454.897 105.814,-457.907 101,-461 87.4585,-469.7 73.416,-480.588 61.6691,-490.304"/>
<polygon fill="black" stroke="black" points="59.3412,-487.688 53.9377,-496.802 63.845,-493.047 59.3412,-487.688"/>
</g>
<!-- bimorphism -->
<g id="node23" class="node"><title>bimorphism</title>
<polygon fill="none" stroke="black" points="356.5,-375 273.5,-375 273.5,-339 356.5,-339 356.5,-375"/>
<text text-anchor="middle" x="315" y="-353.3" font-family="Times New Roman,serif" font-size="14.00">bimorphism</text>
</g>
<!-- bimorphism&#45;&gt;monomorphism -->
<g id="edge29" class="edge"><title>bimorphism&#45;&gt;monomorphism</title>
<path fill="none" stroke="black" d="M300.499,-338.841C282.083,-315.002 247.11,-272.913 210,-245 208.41,-243.804 206.759,-242.636 205.065,-241.498"/>
<polygon fill="black" stroke="black" points="206.662,-238.371 196.319,-236.076 202.974,-244.32 206.662,-238.371"/>
</g>
<!-- bimorphism&#45;&gt;epimorphism -->
<g id="edge28" class="edge"><title>bimorphism&#45;&gt;epimorphism</title>
<path fill="none" stroke="black" d="M277.073,-375.053C254.839,-385.923 226.339,-399.856 202.63,-411.447"/>
<polygon fill="black" stroke="black" points="200.915,-408.39 193.468,-415.927 203.989,-414.679 200.915,-408.39"/>
</g>
<!-- equalizer -->
<g id="node24" class="node"><title>equalizer</title>
<polygon fill="none" stroke="black" points="188,-560 123,-560 123,-524 188,-524 188,-560"/>
<text text-anchor="middle" x="155.5" y="-538.3" font-family="Times New Roman,serif" font-size="14.00">equalizer</text>
</g>
<!-- equalizer&#45;&gt;category -->
<g id="edge30" class="edge"><title>equalizer&#45;&gt;category</title>
<path fill="none" stroke="black" d="M122.709,-534.906C108.119,-531.651 90.6305,-527.748 75.0182,-524.264"/>
<polygon fill="black" stroke="black" points="75.6012,-520.808 65.079,-522.047 74.0767,-527.64 75.6012,-520.808"/>
</g>
<!-- coequalizer -->
<g id="node25" class="node"><title>coequalizer</title>
<polygon fill="none" stroke="black" points="195.5,-506 115.5,-506 115.5,-470 195.5,-470 195.5,-506"/>
<text text-anchor="middle" x="155.5" y="-484.3" font-family="Times New Roman,serif" font-size="14.00">coequalizer</text>
</g>
<!-- coequalizer&#45;&gt;category -->
<g id="edge31" class="edge"><title>coequalizer&#45;&gt;category</title>
<path fill="none" stroke="black" d="M115.215,-496.766C102.473,-499.609 88.2947,-502.773 75.3723,-505.657"/>
<polygon fill="black" stroke="black" points="74.3273,-502.304 65.3296,-507.898 75.8519,-509.136 74.3273,-502.304"/>
</g>
<!-- subobject -->
<g id="node26" class="node"><title>subobject</title>
<polygon fill="none" stroke="black" points="350.5,-267 279.5,-267 279.5,-231 350.5,-231 350.5,-267"/>
<text text-anchor="middle" x="315" y="-245.3" font-family="Times New Roman,serif" font-size="14.00">subobject</text>
</g>
<!-- subobject&#45;&gt;monomorphism -->
<g id="edge32" class="edge"><title>subobject&#45;&gt;monomorphism</title>
<path fill="none" stroke="black" d="M279.436,-242.197C261.46,-238.659 238.942,-234.227 218.107,-230.126"/>
<polygon fill="black" stroke="black" points="218.529,-226.642 208.042,-228.145 217.177,-233.51 218.529,-226.642"/>
</g>
<!-- quotient object -->
<g id="node27" class="node"><title>quotient object</title>
<polygon fill="none" stroke="black" points="365,-452 265,-452 265,-416 365,-416 365,-452"/>
<text text-anchor="middle" x="315" y="-430.3" font-family="Times New Roman,serif" font-size="14.00">quotient object</text>
</g>
<!-- quotient object&#45;&gt;epimorphism -->
<g id="edge33" class="edge"><title>quotient object&#45;&gt;epimorphism</title>
<path fill="none" stroke="black" d="M264.598,-434C247.329,-434 227.861,-434 210.254,-434"/>
<polygon fill="black" stroke="black" points="210.133,-430.5 200.133,-434 210.133,-437.5 210.133,-430.5"/>
</g>
<!-- initial morphism&#45;&gt;category -->
<g id="edge34" class="edge"><title>initial morphism&#45;&gt;category</title>
<path fill="none" stroke="black" d="M144.964,-1099.61C132.824,-1075.38 112.095,-1031.12 101,-991 55.1902,-825.337 39.4026,-618.189 34.9792,-543.493"/>
<polygon fill="black" stroke="black" points="38.4481,-542.845 34.3853,-533.061 31.4594,-543.243 38.4481,-542.845"/>
</g>
<!-- extension -->
<g id="node29" class="node"><title>extension</title>
<polygon fill="none" stroke="black" points="519.5,-1236 450.5,-1236 450.5,-1200 519.5,-1200 519.5,-1236"/>
<text text-anchor="middle" x="485" y="-1214.3" font-family="Times New Roman,serif" font-size="14.00">extension</text>
</g>
<!-- extension&#45;&gt;embedding -->
<g id="edge36" class="edge"><title>extension&#45;&gt;embedding</title>
<path fill="none" stroke="black" d="M450.406,-1218C425.783,-1218 391.99,-1218 364.449,-1218"/>
<polygon fill="black" stroke="black" points="364.232,-1214.5 354.232,-1218 364.232,-1221.5 364.232,-1214.5"/>
</g>
<!-- initial subobject -->
<g id="node30" class="node"><title>initial subobject</title>
<polygon fill="none" stroke="black" points="537,-1344 433,-1344 433,-1308 537,-1308 537,-1344"/>
<text text-anchor="middle" x="485" y="-1322.3" font-family="Times New Roman,serif" font-size="14.00">initial subobject</text>
</g>
<!-- initial subobject&#45;&gt;embedding -->
<g id="edge37" class="edge"><title>initial subobject&#45;&gt;embedding</title>
<path fill="none" stroke="black" d="M437.154,-1307.93C431.261,-1305.17 425.409,-1302.17 420,-1299 392.291,-1282.75 363.701,-1259.97 343.527,-1242.7"/>
<polygon fill="black" stroke="black" points="345.81,-1240.05 335.96,-1236.15 341.226,-1245.34 345.81,-1240.05"/>
</g>
<!-- final morphism -->
<g id="node31" class="node"><title>final morphism</title>
<polygon fill="none" stroke="black" points="205.5,-398 105.5,-398 105.5,-362 205.5,-362 205.5,-398"/>
<text text-anchor="middle" x="155.5" y="-376.3" font-family="Times New Roman,serif" font-size="14.00">final morphism</text>
</g>
<!-- final morphism&#45;&gt;category -->
<g id="edge38" class="edge"><title>final morphism&#45;&gt;category</title>
<path fill="none" stroke="black" d="M112.97,-398.013C108.701,-400.707 104.612,-403.704 101,-407 76.0245,-429.795 56.8004,-463.897 45.3691,-487.662"/>
<polygon fill="black" stroke="black" points="42.1439,-486.297 41.0932,-496.839 48.489,-489.253 42.1439,-486.297"/>
</g>
<!-- structured arrow -->
<g id="node32" class="node"><title>structured arrow</title>
<polygon fill="none" stroke="black" points="707.5,-874 598.5,-874 598.5,-838 707.5,-838 707.5,-874"/>
<text text-anchor="middle" x="653" y="-852.3" font-family="Times New Roman,serif" font-size="14.00">structured arrow</text>
</g>
<!-- structured arrow&#45;&gt;concrete category -->
<g id="edge39" class="edge"><title>structured arrow&#45;&gt;concrete category</title>
<path fill="none" stroke="black" d="M598.105,-843.662C583.66,-840.356 567.869,-836.741 552.817,-833.295"/>
<polygon fill="black" stroke="black" points="553.582,-829.88 543.053,-831.06 552.02,-836.704 553.582,-829.88"/>
</g>
<!-- generating arrow -->
<g id="node33" class="node"><title>generating arrow</title>
<polygon fill="none" stroke="black" points="210,-344 101,-344 101,-308 210,-308 210,-344"/>
<text text-anchor="middle" x="155.5" y="-322.3" font-family="Times New Roman,serif" font-size="14.00">generating arrow</text>
</g>
<!-- generating arrow&#45;&gt;category -->
<g id="edge40" class="edge"><title>generating arrow&#45;&gt;category</title>
<path fill="none" stroke="black" d="M111.348,-344.167C107.579,-346.787 104.047,-349.724 101,-353 65.1793,-391.52 46.974,-451.761 38.9159,-486.909"/>
<polygon fill="black" stroke="black" points="35.4353,-486.444 36.7326,-496.959 42.2757,-487.93 35.4353,-486.444"/>
</g>
<!-- universal arrow -->
<g id="node34" class="node"><title>universal arrow</title>
<polygon fill="none" stroke="black" points="866,-874 765,-874 765,-838 866,-838 866,-874"/>
<text text-anchor="middle" x="815.5" y="-852.3" font-family="Times New Roman,serif" font-size="14.00">universal arrow</text>
</g>
<!-- universal arrow&#45;&gt;concrete category -->
<g id="edge42" class="edge"><title>universal arrow&#45;&gt;concrete category</title>
<path fill="none" stroke="black" d="M764.966,-839.519C750.614,-835.381 734.817,-831.431 720,-829 664.289,-819.859 600.194,-817.397 553.187,-817.058"/>
<polygon fill="black" stroke="black" points="553.14,-813.558 543.125,-817.016 553.111,-820.558 553.14,-813.558"/>
</g>
<!-- universal arrow&#45;&gt;structured arrow -->
<g id="edge41" class="edge"><title>universal arrow&#45;&gt;structured arrow</title>
<path fill="none" stroke="black" d="M764.597,-856C749.801,-856 733.392,-856 717.841,-856"/>
<polygon fill="black" stroke="black" points="717.772,-852.5 707.772,-856 717.772,-859.5 717.772,-852.5"/>
</g>
<!-- free object -->
<g id="node35" class="node"><title>free object</title>
<polygon fill="none" stroke="black" points="987,-897 911,-897 911,-861 987,-861 987,-897"/>
<text text-anchor="middle" x="949" y="-875.3" font-family="Times New Roman,serif" font-size="14.00">free object</text>
</g>
<!-- free object&#45;&gt;concrete category -->
<g id="edge44" class="edge"><title>free object&#45;&gt;concrete category</title>
<path fill="none" stroke="black" d="M910.79,-886.475C844.061,-898.346 700.342,-916.895 586,-883 559.195,-875.054 532.848,-857.409 513.932,-842.505"/>
<polygon fill="black" stroke="black" points="516.017,-839.69 506.045,-836.11 511.608,-845.127 516.017,-839.69"/>
</g>
<!-- free object&#45;&gt;universal arrow -->
<g id="edge43" class="edge"><title>free object&#45;&gt;universal arrow</title>
<path fill="none" stroke="black" d="M910.669,-872.471C899.981,-870.601 888.051,-868.515 876.371,-866.472"/>
<polygon fill="black" stroke="black" points="876.662,-862.97 866.209,-864.694 875.456,-869.865 876.662,-862.97"/>
</g>
<!-- G&#45;structured arrow -->
<g id="node36" class="node"><title>G&#45;structured arrow</title>
<polygon fill="none" stroke="black" points="377,-982 253,-982 253,-946 377,-946 377,-982"/>
<text text-anchor="middle" x="315" y="-960.3" font-family="Times New Roman,serif" font-size="14.00">G&#45;structured arrow</text>
</g>
<!-- G&#45;structured arrow&#45;&gt;functor -->
<g id="edge45" class="edge"><title>G&#45;structured arrow&#45;&gt;functor</title>
<path fill="none" stroke="black" d="M252.655,-964C233.057,-964 211.944,-964 194.508,-964"/>
<polygon fill="black" stroke="black" points="194.174,-960.5 184.174,-964 194.174,-967.5 194.174,-960.5"/>
</g>
<!-- G&#45;universal arrow -->
<g id="node37" class="node"><title>G&#45;universal arrow</title>
<polygon fill="none" stroke="black" points="543,-982 427,-982 427,-946 543,-946 543,-982"/>
<text text-anchor="middle" x="485" y="-960.3" font-family="Times New Roman,serif" font-size="14.00">G&#45;universal arrow</text>
</g>
<!-- G&#45;universal arrow&#45;&gt;G&#45;structured arrow -->
<g id="edge46" class="edge"><title>G&#45;universal arrow&#45;&gt;G&#45;structured arrow</title>
<path fill="none" stroke="black" d="M426.654,-964C414.053,-964 400.56,-964 387.48,-964"/>
<polygon fill="black" stroke="black" points="387.105,-960.5 377.105,-964 387.105,-967.5 387.105,-960.5"/>
</g>
<!-- injective object -->
<g id="node38" class="node"><title>injective object</title>
<polygon fill="none" stroke="black" points="205.5,-290 105.5,-290 105.5,-254 205.5,-254 205.5,-290"/>
<text text-anchor="middle" x="155.5" y="-268.3" font-family="Times New Roman,serif" font-size="14.00">injective object</text>
</g>
<!-- injective object&#45;&gt;category -->
<g id="edge47" class="edge"><title>injective object&#45;&gt;category</title>
<path fill="none" stroke="black" d="M110.771,-290.071C107.164,-292.701 103.826,-295.667 101,-299 54.1779,-354.235 39.7879,-441.893 35.4001,-486.661"/>
<polygon fill="black" stroke="black" points="31.8965,-486.549 34.5062,-496.817 38.8696,-487.163 31.8965,-486.549"/>
</g>
<!-- absolute retract -->
<g id="node39" class="node"><title>absolute retract</title>
<polygon fill="none" stroke="black" points="536,-1398 434,-1398 434,-1362 536,-1362 536,-1398"/>
<text text-anchor="middle" x="485" y="-1376.3" font-family="Times New Roman,serif" font-size="14.00">absolute retract</text>
</g>
<!-- absolute retract&#45;&gt;embedding -->
<g id="edge48" class="edge"><title>absolute retract&#45;&gt;embedding</title>
<path fill="none" stroke="black" d="M433.76,-1362.26C428.871,-1359.54 424.182,-1356.46 420,-1353 397.772,-1334.62 401.299,-1322.08 384,-1299 369.746,-1279.98 352.522,-1259.49 338.976,-1243.87"/>
<polygon fill="black" stroke="black" points="341.476,-1241.42 332.262,-1236.19 336.204,-1246.02 341.476,-1241.42"/>
</g>
<!-- absolute retract&#45;&gt;section -->
<g id="edge49" class="edge"><title>absolute retract&#45;&gt;section</title>
<path fill="none" stroke="black" d="M433.594,-1363.8C407.716,-1355.48 376.745,-1345.53 353.084,-1337.92"/>
<polygon fill="black" stroke="black" points="354.019,-1334.54 343.428,-1334.82 351.877,-1341.21 354.019,-1334.54"/>
</g>
<!-- essential embedding -->
<g id="node40" class="node"><title>essential embedding</title>
<polygon fill="none" stroke="black" points="549,-1290 421,-1290 421,-1254 549,-1254 549,-1290"/>
<text text-anchor="middle" x="485" y="-1268.3" font-family="Times New Roman,serif" font-size="14.00">essential embedding</text>
</g>
<!-- essential embedding&#45;&gt;embedding -->
<g id="edge50" class="edge"><title>essential embedding&#45;&gt;embedding</title>
<path fill="none" stroke="black" d="M427.591,-1253.87C406.878,-1247.21 383.648,-1239.74 363.767,-1233.35"/>
<polygon fill="black" stroke="black" points="364.597,-1229.94 354.005,-1230.22 362.455,-1236.61 364.597,-1229.94"/>
</g>
<!-- source -->
<g id="node41" class="node"><title>source</title>
<polygon fill="none" stroke="black" points="342,-194 288,-194 288,-158 342,-158 342,-194"/>
<text text-anchor="middle" x="315" y="-172.3" font-family="Times New Roman,serif" font-size="14.00">source</text>
</g>
<!-- source&#45;&gt;category -->
<g id="edge51" class="edge"><title>source&#45;&gt;category</title>
<path fill="none" stroke="black" d="M287.667,-159.192C243.71,-133.482 154.903,-91.8702 101,-137 47.545,-181.755 36.3798,-405.712 34.0836,-486.164"/>
<polygon fill="black" stroke="black" points="30.5753,-486.443 33.815,-496.531 37.573,-486.625 30.5753,-486.443"/>
</g>
<!-- composite -->
<g id="node42" class="node"><title>composite</title>
<polygon fill="none" stroke="black" points="522.5,-184 447.5,-184 447.5,-148 522.5,-148 522.5,-184"/>
<text text-anchor="middle" x="485" y="-162.3" font-family="Times New Roman,serif" font-size="14.00">composite</text>
</g>
<!-- composite&#45;&gt;source -->
<g id="edge52" class="edge"><title>composite&#45;&gt;source</title>
<path fill="none" stroke="black" d="M447.132,-168.195C418.954,-169.872 380.314,-172.172 352.282,-173.84"/>
<polygon fill="black" stroke="black" points="351.877,-170.358 342.102,-174.446 352.293,-177.346 351.877,-170.358"/>
</g>
<!-- product  -->
<g id="node43" class="node"><title>product </title>
<polygon fill="none" stroke="black" points="188,-182 123,-182 123,-146 188,-146 188,-182"/>
<text text-anchor="middle" x="155.5" y="-160.3" font-family="Times New Roman,serif" font-size="14.00">product </text>
</g>
<!-- product &#45;&gt;category -->
<g id="edge53" class="edge"><title>product &#45;&gt;category</title>
<path fill="none" stroke="black" d="M122.819,-174.237C114.636,-178.275 106.573,-183.736 101,-191 65.2293,-237.626 43.5263,-416.607 36.2483,-486.656"/>
<polygon fill="black" stroke="black" points="32.7337,-486.624 35.2042,-496.927 39.6978,-487.332 32.7337,-486.624"/>
</g>
<!-- initial source -->
<g id="node44" class="node"><title>initial source</title>
<polygon fill="none" stroke="black" points="696,-230 610,-230 610,-194 696,-194 696,-230"/>
<text text-anchor="middle" x="653" y="-208.3" font-family="Times New Roman,serif" font-size="14.00">initial source</text>
</g>
<!-- initial source&#45;&gt;concrete category -->
<g id="edge56" class="edge"><title>initial source&#45;&gt;concrete category</title>
<path fill="none" stroke="black" d="M646.816,-230.25C634.636,-273.699 603.881,-386.832 586,-483 563.225,-605.488 608.192,-650.838 550,-761 543.41,-773.476 532.92,-784.53 522.325,-793.504"/>
<polygon fill="black" stroke="black" points="519.888,-790.971 514.264,-799.95 524.26,-796.438 519.888,-790.971"/>
</g>
<!-- initial source&#45;&gt;source -->
<g id="edge54" class="edge"><title>initial source&#45;&gt;source</title>
<path fill="none" stroke="black" d="M609.985,-209.577C563.432,-206.656 486.186,-201.106 420,-193 397.423,-190.235 372.245,-186.146 352.318,-182.671"/>
<polygon fill="black" stroke="black" points="352.875,-179.215 342.418,-180.92 351.656,-186.108 352.875,-179.215"/>
</g>
<!-- initial source&#45;&gt;composite -->
<g id="edge55" class="edge"><title>initial source&#45;&gt;composite</title>
<path fill="none" stroke="black" d="M609.682,-200.273C586.042,-193.723 556.554,-185.551 532.3,-178.83"/>
<polygon fill="black" stroke="black" points="533.174,-175.441 522.603,-176.143 531.305,-182.186 533.174,-175.441"/>
</g>
<!-- concrete product -->
<g id="node45" class="node"><title>concrete product</title>
<polygon fill="none" stroke="black" points="709.5,-636 596.5,-636 596.5,-600 709.5,-600 709.5,-636"/>
<text text-anchor="middle" x="653" y="-614.3" font-family="Times New Roman,serif" font-size="14.00">concrete product</text>
</g>
<!-- concrete product&#45;&gt;product -->
<g id="edge58" class="edge"><title>concrete product&#45;&gt;product</title>
<path fill="none" stroke="black" d="M610.65,-636.102C602.281,-640.3 593.694,-645.013 586,-650 571.384,-659.473 538.296,-687.829 514.171,-708.991"/>
<polygon fill="black" stroke="black" points="511.566,-706.621 506.372,-715.855 516.191,-711.876 511.566,-706.621"/>
</g>
<!-- concrete product&#45;&gt;concrete category -->
<g id="edge57" class="edge"><title>concrete product&#45;&gt;concrete category</title>
<path fill="none" stroke="black" d="M603,-636.024C596.683,-639.904 590.767,-644.526 586,-650 551.94,-689.111 578.353,-717.573 550,-761 542.015,-773.231 530.742,-784.464 519.877,-793.665"/>
<polygon fill="black" stroke="black" points="517.645,-790.969 512.091,-799.991 522.06,-796.401 517.645,-790.969"/>
</g>
<!-- sink -->
<g id="node46" class="node"><title>sink</title>
<polygon fill="none" stroke="black" points="342,-741 288,-741 288,-705 342,-705 342,-741"/>
<text text-anchor="middle" x="315" y="-719.3" font-family="Times New Roman,serif" font-size="14.00">sink</text>
</g>
<!-- sink&#45;&gt;category -->
<g id="edge59" class="edge"><title>sink&#45;&gt;category</title>
<path fill="none" stroke="black" d="M287.722,-733.488C244.238,-748.951 156.605,-771.88 101,-731 41.5323,-687.28 32.9942,-591.403 32.6618,-543.466"/>
<polygon fill="black" stroke="black" points="36.1631,-543.201 32.7133,-533.183 29.1632,-543.166 36.1631,-543.201"/>
</g>
<!-- diagram -->
<g id="node47" class="node"><title>diagram</title>
<polygon fill="none" stroke="black" points="345.5,-668 284.5,-668 284.5,-632 345.5,-632 345.5,-668"/>
<text text-anchor="middle" x="315" y="-646.3" font-family="Times New Roman,serif" font-size="14.00">diagram</text>
</g>
<!-- diagram&#45;&gt;functor -->
<g id="edge60" class="edge"><title>diagram&#45;&gt;functor</title>
<path fill="none" stroke="black" d="M284.2,-664.408C270.894,-672.15 255.995,-682.83 246,-696 189.245,-770.785 167.328,-883.539 159.88,-935.693"/>
<polygon fill="black" stroke="black" points="156.376,-935.487 158.503,-945.866 163.313,-936.426 156.376,-935.487"/>
</g>
<!-- pullback -->
<g id="node48" class="node"><title>pullback</title>
<polygon fill="none" stroke="black" points="187.5,-90 123.5,-90 123.5,-54 187.5,-54 187.5,-90"/>
<text text-anchor="middle" x="155.5" y="-68.3" font-family="Times New Roman,serif" font-size="14.00">pullback</text>
</g>
<!-- pullback&#45;&gt;category -->
<g id="edge61" class="edge"><title>pullback&#45;&gt;category</title>
<path fill="none" stroke="black" d="M123.377,-84.595C114.9,-89.4587 106.539,-95.8562 101,-104 58.1895,-166.945 40.1394,-404.361 35.0793,-486.684"/>
<polygon fill="black" stroke="black" points="31.5774,-486.614 34.4753,-496.805 38.565,-487.031 31.5774,-486.614"/>
</g>
<!-- pullback stable -->
<g id="node49" class="node"><title>pullback stable</title>
<polygon fill="none" stroke="black" points="365,-63 265,-63 265,-27 365,-27 365,-63"/>
<text text-anchor="middle" x="315" y="-41.3" font-family="Times New Roman,serif" font-size="14.00">pullback stable</text>
</g>
<!-- pullback stable&#45;&gt;pullback -->
<g id="edge62" class="edge"><title>pullback stable&#45;&gt;pullback</title>
<path fill="none" stroke="black" d="M264.598,-53.4689C243.143,-57.1468 218.297,-61.4062 197.839,-64.9133"/>
<polygon fill="black" stroke="black" points="197.148,-61.4806 187.883,-66.62 198.331,-68.38 197.148,-61.4806"/>
</g>
<!-- congruence relation -->
<g id="node50" class="node"><title>congruence relation</title>
<polygon fill="none" stroke="black" points="377.5,-117 252.5,-117 252.5,-81 377.5,-81 377.5,-117"/>
<text text-anchor="middle" x="315" y="-95.3" font-family="Times New Roman,serif" font-size="14.00">congruence relation</text>
</g>
<!-- congruence relation&#45;&gt;pullback -->
<g id="edge63" class="edge"><title>congruence relation&#45;&gt;pullback</title>
<path fill="none" stroke="black" d="M252.204,-88.4064C233.934,-85.2743 214.385,-81.9232 197.749,-79.0713"/>
<polygon fill="black" stroke="black" points="198.253,-75.6067 187.805,-77.3666 197.07,-82.506 198.253,-75.6067"/>
</g>
<!-- intersection -->
<g id="node51" class="node"><title>intersection</title>
<polygon fill="none" stroke="black" points="525,-276 445,-276 445,-240 525,-240 525,-276"/>
<text text-anchor="middle" x="485" y="-254.3" font-family="Times New Roman,serif" font-size="14.00">intersection</text>
</g>
<!-- intersection&#45;&gt;subobject -->
<g id="edge64" class="edge"><title>intersection&#45;&gt;subobject</title>
<path fill="none" stroke="black" d="M444.611,-255.89C419.44,-254.541 386.738,-252.79 360.61,-251.39"/>
<polygon fill="black" stroke="black" points="360.758,-247.893 350.585,-250.853 360.384,-254.883 360.758,-247.893"/>
</g>
<!-- natural sink -->
<g id="node52" class="node"><title>natural sink</title>
<polygon fill="none" stroke="black" points="525,-668 445,-668 445,-632 525,-632 525,-668"/>
<text text-anchor="middle" x="485" y="-646.3" font-family="Times New Roman,serif" font-size="14.00">natural sink</text>
</g>
<!-- natural sink&#45;&gt;sink -->
<g id="edge65" class="edge"><title>natural sink&#45;&gt;sink</title>
<path fill="none" stroke="black" d="M444.611,-667.115C416.329,-679.405 378.542,-695.824 351.252,-707.682"/>
<polygon fill="black" stroke="black" points="349.847,-704.477 342.07,-711.672 352.636,-710.897 349.847,-704.477"/>
</g>
<!-- natural sink&#45;&gt;diagram -->
<g id="edge66" class="edge"><title>natural sink&#45;&gt;diagram</title>
<path fill="none" stroke="black" d="M444.611,-650C417.898,-650 382.706,-650 355.888,-650"/>
<polygon fill="black" stroke="black" points="355.691,-646.5 345.691,-650 355.69,-653.5 355.691,-646.5"/>
</g>
<!-- natural source -->
<g id="node53" class="node"><title>natural source</title>
<polygon fill="none" stroke="black" points="532.5,-528 437.5,-528 437.5,-492 532.5,-492 532.5,-528"/>
<text text-anchor="middle" x="485" y="-506.3" font-family="Times New Roman,serif" font-size="14.00">natural source</text>
</g>
<!-- natural source&#45;&gt;source -->
<g id="edge67" class="edge"><title>natural source&#45;&gt;source</title>
<path fill="none" stroke="black" d="M479.287,-491.742C464.547,-435.596 418.262,-266.594 384,-222 375.281,-210.652 362.941,-201.129 351.162,-193.746"/>
<polygon fill="black" stroke="black" points="352.721,-190.602 342.332,-188.522 349.156,-196.626 352.721,-190.602"/>
</g>
<!-- natural source&#45;&gt;diagram -->
<g id="edge68" class="edge"><title>natural source&#45;&gt;diagram</title>
<path fill="none" stroke="black" d="M472.15,-528.029C455.225,-552.536 421.948,-596.355 384,-623 375.346,-629.077 365.129,-634.056 355.281,-638.01"/>
<polygon fill="black" stroke="black" points="353.766,-634.84 345.628,-641.624 356.22,-641.396 353.766,-634.84"/>
</g>
<!-- colimit -->
<g id="node54" class="node"><title>colimit</title>
<polygon fill="none" stroke="black" points="680,-582 626,-582 626,-546 680,-546 680,-582"/>
<text text-anchor="middle" x="653" y="-560.3" font-family="Times New Roman,serif" font-size="14.00">colimit</text>
</g>
<!-- colimit&#45;&gt;natural sink -->
<g id="edge69" class="edge"><title>colimit&#45;&gt;natural sink</title>
<path fill="none" stroke="black" d="M625.915,-573.665C613.621,-578.474 598.864,-584.616 586,-591 564.586,-601.627 541.552,-615.07 522.994,-626.439"/>
<polygon fill="black" stroke="black" points="520.936,-623.597 514.27,-631.832 524.617,-629.551 520.936,-623.597"/>
</g>
<!-- limit -->
<g id="node55" class="node"><title>limit</title>
<polygon fill="none" stroke="black" points="680,-528 626,-528 626,-492 680,-492 680,-528"/>
<text text-anchor="middle" x="653" y="-506.3" font-family="Times New Roman,serif" font-size="14.00">limit</text>
</g>
<!-- limit&#45;&gt;natural source -->
<g id="edge70" class="edge"><title>limit&#45;&gt;natural source</title>
<path fill="none" stroke="black" d="M625.697,-510C603.469,-510 570.848,-510 542.719,-510"/>
<polygon fill="black" stroke="black" points="542.586,-506.5 532.586,-510 542.586,-513.5 542.586,-506.5"/>
</g>
<!-- pushout -->
<g id="node56" class="node"><title>pushout</title>
<polygon fill="none" stroke="black" points="186.5,-36 124.5,-36 124.5,-0 186.5,-0 186.5,-36"/>
<text text-anchor="middle" x="155.5" y="-14.3" font-family="Times New Roman,serif" font-size="14.00">pushout</text>
</g>
<!-- pushout&#45;&gt;category -->
<g id="edge71" class="edge"><title>pushout&#45;&gt;category</title>
<path fill="none" stroke="black" d="M124.478,-27.0807C115.622,-31.1856 106.767,-36.9732 101,-45 49.5787,-116.568 36.9664,-396.435 34.2059,-486.741"/>
<polygon fill="black" stroke="black" points="30.706,-486.691 33.9161,-496.787 37.703,-486.893 30.706,-486.691"/>
</g>
<!-- complete category -->
<g id="node57" class="node"><title>complete category</title>
<polygon fill="none" stroke="black" points="875,-505 756,-505 756,-469 875,-469 875,-505"/>
<text text-anchor="middle" x="815.5" y="-483.3" font-family="Times New Roman,serif" font-size="14.00">complete category</text>
</g>
<!-- complete category&#45;&gt;diagram -->
<g id="edge73" class="edge"><title>complete category&#45;&gt;diagram</title>
<path fill="none" stroke="black" d="M765.38,-468.968C684.187,-442.622 520.948,-404.726 420,-483 369.228,-522.368 426.472,-574.795 384,-623 376.478,-631.537 365.894,-637.406 355.312,-641.428"/>
<polygon fill="black" stroke="black" points="354.07,-638.153 345.683,-644.626 356.276,-644.796 354.07,-638.153"/>
</g>
<!-- complete category&#45;&gt;limit -->
<g id="edge72" class="edge"><title>complete category&#45;&gt;limit</title>
<path fill="none" stroke="black" d="M755.647,-495.434C733.756,-498.571 709.573,-502.036 690.289,-504.8"/>
<polygon fill="black" stroke="black" points="689.527,-501.373 680.125,-506.256 690.52,-508.302 689.527,-501.373"/>
</g>
<!-- concrete limit -->
<g id="node58" class="node"><title>concrete limit</title>
<polygon fill="none" stroke="black" points="861.5,-632 769.5,-632 769.5,-596 861.5,-596 861.5,-632"/>
<text text-anchor="middle" x="815.5" y="-610.3" font-family="Times New Roman,serif" font-size="14.00">concrete limit</text>
</g>
<!-- concrete limit&#45;&gt;concrete category -->
<g id="edge74" class="edge"><title>concrete limit&#45;&gt;concrete category</title>
<path fill="none" stroke="black" d="M769.435,-629.197C753.823,-634.351 736.182,-640.054 720,-645 660.8,-663.096 633.052,-642.773 586,-683 556.979,-707.811 572.734,-730.325 550,-761 541.16,-772.928 529.488,-784.217 518.535,-793.553"/>
<polygon fill="black" stroke="black" points="516.223,-790.923 510.737,-799.987 520.678,-796.322 516.223,-790.923"/>
</g>
<!-- concrete limit&#45;&gt;limit -->
<g id="edge75" class="edge"><title>concrete limit&#45;&gt;limit</title>
<path fill="none" stroke="black" d="M795.849,-595.973C777.637,-579.085 748.566,-553.969 720,-537 710.563,-531.394 699.746,-526.433 689.636,-522.341"/>
<polygon fill="black" stroke="black" points="690.818,-519.046 680.229,-518.693 688.287,-525.572 690.818,-519.046"/>
</g>
<!-- adjoint functor -->
<g id="node59" class="node"><title>adjoint functor</title>
<polygon fill="none" stroke="black" points="702,-1074 604,-1074 604,-1038 702,-1038 702,-1074"/>
<text text-anchor="middle" x="653" y="-1052.3" font-family="Times New Roman,serif" font-size="14.00">adjoint functor</text>
</g>
<!-- adjoint functor&#45;&gt;G&#45;universal arrow -->
<g id="edge76" class="edge"><title>adjoint functor&#45;&gt;G&#45;universal arrow</title>
<path fill="none" stroke="black" d="M603.768,-1038.62C597.617,-1035.73 591.541,-1032.51 586,-1029 567.67,-1017.38 567.88,-1008.31 550,-996 545.459,-992.875 540.569,-989.871 535.588,-987.042"/>
<polygon fill="black" stroke="black" points="537.037,-983.846 526.579,-982.147 533.695,-989.996 537.037,-983.846"/>
</g>
<!-- monad -->
<g id="node60" class="node"><title>monad</title>
<polygon fill="none" stroke="black" points="512.5,-1074 457.5,-1074 457.5,-1038 512.5,-1038 512.5,-1074"/>
<text text-anchor="middle" x="485" y="-1052.3" font-family="Times New Roman,serif" font-size="14.00">monad</text>
</g>
<!-- monad&#45;&gt;natural transformation -->
<g id="edge77" class="edge"><title>monad&#45;&gt;natural transformation</title>
<path fill="none" stroke="black" d="M457.38,-1056C440.213,-1056 416.922,-1056 394.199,-1056"/>
<polygon fill="black" stroke="black" points="394.17,-1052.5 384.17,-1056 394.17,-1059.5 394.17,-1052.5"/>
</g>
</g>
</svg>
